<svg xmlns="http://www.w3.org/2000/svg" height="40" viewBox="0 96 960 960" width="40"><path d="M196.666 1072q-43.7 0-74.183-30.48Q92 1011.03 92 967.334V400.666q0-43.975 30.483-74.654 30.483-30.679 74.183-30.679h388.001L480.001 400.666H196.666v566.668h566.668V683.665l105.333-105.332v389.001q0 43.696-30.679 74.186-30.679 30.48-74.654 30.48H196.666ZM480 684Zm162.667-352.334L707 394.999 435.333 664.333v64.334h63.334l272.334-270.334 61.333 61.333-296.667 297.667h-189v-189l296-296.667Zm189.667 188-189.667-188 87.667-87q31.333-31.333 75.04-30.666 43.707.667 74.959 32.666l39.334 40.001q29 32 29 74.348t-31 73.318l-85.333 85.333Z"/></svg>