<?xml version="1.0" standalone="no"?>
<!DOCTYPE svg PUBLIC "-//W3C//DTD SVG 20010904//EN"
 "http://www.w3.org/TR/2001/REC-SVG-20010904/DTD/svg10.dtd">
<svg version="1.0" xmlns="http://www.w3.org/2000/svg"
 width="512.000000pt" height="512.000000pt" viewBox="0 0 512.000000 512.000000"
 preserveAspectRatio="xMidYMid meet">

<g transform="translate(0.000000,512.000000) scale(0.100000,-0.100000)"
fill="#000000" stroke="none">
<path d="M3909 5017 c-57 -22 -80 -42 -339 -301 l-245 -246 578 -577 577 -578
245 245 c135 135 259 264 275 288 39 58 46 108 25 179 -16 57 -25 66 -458 501
-243 244 -461 455 -483 468 -51 30 -126 39 -175 21z"/>
<path d="M1830 2975 l-1315 -1315 578 -577 577 -578 1317 1317 1318 1318 -575
575 c-316 316 -577 575 -580 575 -3 0 -597 -592 -1320 -1315z"/>
<path d="M234 808 c-94 -546 -117 -694 -106 -696 17 -5 1354 228 1364 237 4 4
-250 264 -565 579 l-573 573 -120 -693z"/>
</g>
</svg>
