<?xml version="1.0" standalone="no"?>
<!DOCTYPE svg PUBLIC "-//W3C//DTD SVG 20010904//EN"
 "http://www.w3.org/TR/2001/REC-SVG-20010904/DTD/svg10.dtd">
<svg version="1.0" xmlns="http://www.w3.org/2000/svg"
 width="300.000000pt" height="400.000000pt" viewBox="0 0 300.000000 400.000000"
 preserveAspectRatio="xMidYMid meet">

<g transform="translate(0.000000,400.000000) scale(0.100000,-0.100000)"
fill="#000000" stroke="none">
<path d="M207 3182 c-108 -108 -197 -202 -197 -207 0 -6 300 -310 668 -678
l667 -667 155 0 155 0 625 628 c344 345 645 648 670 675 l44 47 -199 200
c-110 110 -204 200 -210 200 -6 0 -217 -207 -470 -460 l-460 -460 -154 0 -154
0 -463 460 c-255 253 -467 460 -471 460 -5 0 -97 -89 -206 -198z"/>
<path d="M212 1627 l-202 -202 673 -673 672 -672 155 0 155 1 667 673 667 673
-205 204 -204 204 -463 -463 -462 -462 -157 0 -158 0 -463 460 c-256 253 -466
460 -468 460 -2 0 -95 -91 -207 -203z"/>
</g>
</svg>
