<svg width="100" height="100" viewBox="-28,-48 30,96"
    xmlns="http://www.w3.org/2000/svg">

  <!---<rect x="-12" y="-12" width="24" height="24" rx="1" 
        fill="grey" />-->
  <!--<rect width="100%" height="100%" fill="grey" />-->
  <path
    stroke='black'
    stroke-width='14'
    fill='none'
    d=" M 10,-40
        Q 15,-40 19,-32
        Q 34,0 19,32
        Q 15,40 10,40
        H -20
        Q -34  40 -34 32
        V      24
        M -34 -24
        V     -32
        Q -34,-40 -20,-40
        H 10"
  />
  <!--<path
    stroke='black'
    stroke-width='12'
    fill='none'
    d=" M -54,0
        L -2,0
        M -20,-18
        L -2,0
        L -20,18
        "
  />-->
   <path
    
    fill='black'
    d=" M -54,0
        L 2,0
        M -20,-24
        L 10,0
        L -20,24
        L -20,-24
        "
  />
  <path
    stroke='black'
    stroke-width='16'
    fill='black'
    d=" M -54,0
        L -20,0"
        />
  

  <!--<circle x="0" y="0" r="2" fill="black" /> -->
</svg>
